<svg id="Layer_1" data-name="Layer 1" xmlns="http://www.w3.org/2000/svg" xmlns:xlink="http://www.w3.org/1999/xlink" viewBox="0 0 321.26 149.62"><defs><style>.cls-1{fill:none;}.cls-2{fill:#7b18c1;}.cls-3{clip-path:url(#clip-path);}</style><clipPath id="clip-path"><rect class="cls-1" x="94.24" width="172.88" height="149.62"/></clipPath></defs><path class="cls-2" d="M11.29,43.46A11.29,11.29,0,1,0,22.57,54.74,11.29,11.29,0,0,0,11.29,43.46Z"/><path class="cls-2" d="M46.33,29.6A11.29,11.29,0,1,0,57.62,40.89,11.31,11.31,0,0,0,46.33,29.6Z"/><path class="cls-2" d="M55.58,62a5.16,5.16,0,0,0-.61-.43,19.5,19.5,0,0,0-13.43-3.06A17.22,17.22,0,0,0,31.59,64a5.94,5.94,0,0,0,.34,8.39c2.41,2.23,4.81,2.09,8.57-.49a6.59,6.59,0,0,1,7.82-.41l.18.12A8.12,8.12,0,0,1,51.27,79C50.82,84.33,47,91.72,41,98.76a52.93,52.93,0,0,1-9.24,8.74l-.55.37-.58-.32A54.64,54.64,0,0,1,17.18,95.73l-.08-.1a16.72,16.72,0,0,1-3.49-6.4,7.72,7.72,0,0,1-.11-4.58,4,4,0,0,1,4.29-2.6c2.24.25,4.65,2.82,5.82,4.43l.44.67.16.26c1.64,2.56,3.59,4.89,6.55,4.52a5.92,5.92,0,0,0,5.15-6.62c-.34-2.78-2.62-5.83-3.95-7.4a23.27,23.27,0,0,0-8.79-6.59,16.69,16.69,0,0,0-6.24-1.24,18.15,18.15,0,0,0-11.4,4.34l0,0A13,13,0,0,0,1,83.6c-.55,6.26,2.2,14,7,19.67a70.57,70.57,0,0,0,11.63,11.2c6.55,5,9.83,5.54,11.73,5.54,2.65,0,5.57-1.39,9.47-4.52a71.58,71.58,0,0,0,9.15-9C54.5,101.18,62.2,90.72,63.1,80A20,20,0,0,0,55.58,62Z"/><path class="cls-2" d="M73.74,65.11H88.55L97.22,92.6l8.6-27.49H120L104,107H89.63Z"/><path class="cls-2" d="M149.67,107l-2.09-5.92H131.87L129.72,107H115.5l17.68-41.89H147.4l17,41.89ZM135.45,91.16h8.73l-4.31-12.24Z"/><path class="cls-2" d="M166.82,65.11h13.86V107H166.82Z"/><path class="cls-2" d="M216.65,66.43a13,13,0,0,1,5.79,3.7,8.31,8.31,0,0,1,2,5.56,8.79,8.79,0,0,1-1.91,5.56,9.9,9.9,0,0,1-5.14,3.4,10.28,10.28,0,0,1,6,3.73,10.82,10.82,0,0,1,2.27,6.85,9.85,9.85,0,0,1-2.09,6.21,13.11,13.11,0,0,1-5.89,4.12,25,25,0,0,1-8.87,1.44H186.65V65.11h21.21A26.56,26.56,0,0,1,216.65,66.43Zm-7.26,14a3,3,0,0,0,.86-2.21,2.78,2.78,0,0,0-.86-2.12,3.25,3.25,0,0,0-2.3-.81h-6.63v6h6.63A3.18,3.18,0,0,0,209.39,80.41Zm.77,15.5a2.93,2.93,0,0,0,1.17-2.42,2.6,2.6,0,0,0-1.17-2.21,5.19,5.19,0,0,0-3.07-.83h-6.63v6.39h6.63A4.76,4.76,0,0,0,210.16,95.91Z"/><path class="cls-2" d="M229.91,65.11h35.43V75.63H243.77v5.14h19.6V91.28h-19.6v5.2h22.11V107h-36Z"/><path class="cls-2" d="M271.13,65.11h14.7l10.4,25.31,10.33-25.31h14.7V107H309.13v-23l-8.42,22.89h-9l-8.43-22.89v23H271.13Z"/><g class="cls-3"><path class="cls-2" d="M126.45-3.84A29.73,29.73,0,1,1,96.72,25.89,29.75,29.75,0,0,1,126.45-3.84m0-.5a30.23,30.23,0,1,0,30.23,30.23A30.26,30.26,0,0,0,126.45-4.34Z"/><path class="cls-2" d="M220.31-40.95A29.75,29.75,0,0,1,250-11.22a29.76,29.76,0,0,1-29.73,29.73,29.77,29.77,0,0,1-29.73-29.73,29.76,29.76,0,0,1,29.73-29.73m0-.5a30.26,30.26,0,0,0-30.23,30.23A30.26,30.26,0,0,0,220.31,19a30.26,30.26,0,0,0,30.23-30.23,30.26,30.26,0,0,0-30.23-30.23Z"/><path class="cls-2" d="M214.66,35.91c9.41,0,19.27,3,28.53,8.7a16.3,16.3,0,0,1,1.59,1.13c14.67,11.82,21.56,28.31,19.94,47.68-2.4,28.63-23,56.57-35,70.67a189,189,0,0,1-24.44,24.1c-10.35,8.31-18.07,12-25,12-5,0-13.69-1.53-31.13-14.76a187.33,187.33,0,0,1-31.05-29.91c-12.83-15.15-20.16-35.68-18.69-52.3.9-10.16,5-18.52,11.87-24.17l.12-.09c9.31-7.53,19.75-11.51,30.21-11.51a43.89,43.89,0,0,1,16.53,3.29c10.69,4.31,18.59,11.9,23.33,17.51,3.52,4.16,9.57,12.25,10.48,19.54A15.4,15.4,0,0,1,178.54,125a14.11,14.11,0,0,1-1.58.1c-6.83,0-11.48-5.76-15.47-11.95-.12-.23-.26-.47-.43-.75l-1.21-1.8c-3.74-5.17-10.16-11.44-15.93-12.08a14.41,14.41,0,0,0-1.45-.08c-4.71,0-8.55,2.68-10.54,7.36-1.21,2.85-1.12,7.55.26,12.58a45.5,45.5,0,0,0,9.45,17.34l.22.26c12.66,15.55,28.49,27.52,36,31.77l1.55.87.27.15.26-.17,1.47-1c5.54-3.77,15-11.93,24.85-23.5,16.15-18.92,26.52-38.82,27.73-53.24.73-8.79-1.61-15-7.59-20.3h0l0,0-.51-.36a20.08,20.08,0,0,0-10.07-3c-4.79,0-8.62,2.2-11.42,4.12-5.38,3.7-9.6,5.42-13.27,5.42-3.19,0-6.07-1.29-9.06-4a15.43,15.43,0,0,1-.87-21.77,45.69,45.69,0,0,1,26.35-14.41,44.28,44.28,0,0,1,7.11-.57m0-.5a44.32,44.32,0,0,0-7.19.58,46.2,46.2,0,0,0-26.64,14.56,15.93,15.93,0,0,0,.9,22.47c3,2.79,6,4.19,9.4,4.19,3.86,0,8.19-1.83,13.56-5.51,3.11-2.13,6.72-4,11.13-4a19.65,19.65,0,0,1,9.83,2.93l.46.33c5.85,5.13,8.14,11.26,7.42,19.87-1.2,14.32-11.52,34.12-27.61,53-9.85,11.53-19.24,19.65-24.75,23.41l-1.47,1-1.55-.87c-7.52-4.23-23.29-16.14-35.9-31.64l-.23-.27a45,45,0,0,1-9.35-17.16c-1.35-4.91-1.45-9.49-.28-12.25,1.94-4.54,5.56-7,10.08-7a11.16,11.16,0,0,1,1.4.08c6,.66,12.46,7.56,15.58,11.88l1.2,1.78c.15.25.28.48.4.71,4.1,6.36,8.9,12.21,15.91,12.21a13.16,13.16,0,0,0,1.64-.11,15.9,15.9,0,0,0,13.81-17.75c-.93-7.42-7-15.6-10.6-19.81-4.78-5.65-12.74-13.3-23.52-17.65A44.69,44.69,0,0,0,141.57,67C131,67,120.44,71,111,78.58l-.11.09c-7,5.74-11.14,14.22-12.06,24.51-1.48,16.75,5.9,37.43,18.8,52.67a188,188,0,0,0,31.14,30c17.56,13.32,26.35,14.86,31.43,14.86,7.09,0,14.91-3.74,25.36-12.12a189.94,189.94,0,0,0,24.5-24.16c12.08-14.15,32.71-42.19,35.12-71,1.64-19.54-5.32-36.18-20.13-48.11a15.65,15.65,0,0,0-1.64-1.16c-9.42-5.8-19.25-8.78-28.79-8.78Z"/></g></svg>