<svg id="Layer_1" data-name="Layer 1" xmlns="http://www.w3.org/2000/svg" viewBox="0 0 321.26 90.41"><defs><style>.cls-1{fill:#13f484;}.cls-2{fill:#fff;}</style></defs><path class="cls-1" d="M11.29,13.85A11.29,11.29,0,1,0,22.57,25.14,11.3,11.3,0,0,0,11.29,13.85Z"/><path class="cls-1" d="M46.33,0A11.29,11.29,0,1,0,57.62,11.29,11.3,11.3,0,0,0,46.33,0Z"/><path class="cls-2" d="M55.58,32.41A5.16,5.16,0,0,0,55,32a19.56,19.56,0,0,0-13.43-3.07,17.29,17.29,0,0,0-9.95,5.44,5.94,5.94,0,0,0,.34,8.39c2.41,2.23,4.81,2.09,8.57-.49a6.59,6.59,0,0,1,7.82-.41l.18.12a8.12,8.12,0,0,1,2.77,7.42C50.82,54.73,47,62.12,41,69.16a53.33,53.33,0,0,1-9.24,8.74l-.55.37L30.59,78A54.64,54.64,0,0,1,17.18,66.13L17.1,66a16.79,16.79,0,0,1-3.49-6.4,7.72,7.72,0,0,1-.11-4.58,4,4,0,0,1,4.29-2.6c2.24.24,4.65,2.82,5.82,4.43l.44.67.16.26c1.64,2.56,3.59,4.89,6.55,4.52a5.92,5.92,0,0,0,5.15-6.63c-.34-2.77-2.62-5.82-3.95-7.39a23.27,23.27,0,0,0-8.79-6.59,16.49,16.49,0,0,0-6.24-1.24,18.15,18.15,0,0,0-11.4,4.34l0,0A13,13,0,0,0,1,54c-.55,6.26,2.2,14,7,19.67A70.1,70.1,0,0,0,19.64,84.86c6.55,5,9.83,5.55,11.73,5.55,2.65,0,5.57-1.39,9.47-4.52a72.25,72.25,0,0,0,9.15-9C54.5,71.58,62.2,61.12,63.1,50.37A20,20,0,0,0,55.58,32.41Z"/><path class="cls-1" d="M73.74,35.51H88.55L97.22,63l8.6-27.48H120L104,77.39H89.63Z"/><path class="cls-1" d="M149.67,77.39l-2.09-5.91H131.87l-2.15,5.91H115.5l17.68-41.88H147.4l17,41.88ZM135.45,61.56h8.73l-4.31-12.25Z"/><path class="cls-1" d="M166.82,35.51h13.86V77.39H166.82Z"/><path class="cls-2" d="M216.65,36.83a13,13,0,0,1,5.79,3.7,8.29,8.29,0,0,1,2,5.56,8.74,8.74,0,0,1-1.91,5.55,9.85,9.85,0,0,1-5.14,3.41,10.28,10.28,0,0,1,6,3.73,10.8,10.8,0,0,1,2.27,6.84,9.89,9.89,0,0,1-2.09,6.22A13.19,13.19,0,0,1,217.75,76a25,25,0,0,1-8.87,1.43H186.65V35.51h21.21A26.56,26.56,0,0,1,216.65,36.83Zm-7.26,14a3,3,0,0,0,.86-2.21,2.76,2.76,0,0,0-.86-2.12,3.25,3.25,0,0,0-2.3-.81h-6.63v6h6.63A3.17,3.17,0,0,0,209.39,50.81Zm.77,15.5a2.94,2.94,0,0,0,1.17-2.42,2.6,2.6,0,0,0-1.17-2.21,5.12,5.12,0,0,0-3.07-.84h-6.63v6.4h6.63A4.76,4.76,0,0,0,210.16,66.31Z"/><path class="cls-2" d="M229.91,35.51h35.43V46H243.77v5.14h19.6V61.68h-19.6v5.2h22.11V77.39h-36Z"/><path class="cls-2" d="M271.13,35.51h14.7l10.4,25.31,10.33-25.31h14.7V77.39H309.13V54.45l-8.42,22.89h-9l-8.43-22.89V77.39H271.13Z"/></svg>